<svg width="64" height="27" viewBox="0 0 64 27" fill="none" xmlns="http://www.w3.org/2000/svg">
<g clip-path="url(#clip0_493_5613)">
<path d="M11.9743 3.61572C11.236 4.49393 10.0548 5.1866 8.87354 5.08765C8.72589 3.90021 9.30421 2.63855 9.98097 1.8593C10.7192 0.956345 12.0112 0.313149 13.0571 0.263672C13.1802 1.50059 12.7003 2.71277 11.9743 3.61572ZM13.0448 5.32266C11.3345 5.22371 9.87022 6.29983 9.05811 6.29983C8.2337 6.29983 6.99093 5.37214 5.63741 5.39688C3.87784 5.42162 2.24132 6.42352 1.34308 8.01914C-0.502627 11.2104 0.863193 15.9354 2.64737 18.5329C3.52101 19.8193 4.5669 21.2294 5.94503 21.1799C7.24933 21.1305 7.76612 20.3265 9.34112 20.3265C10.9284 20.3265 11.3837 21.1799 12.7618 21.1552C14.1892 21.1305 15.0874 19.8688 15.961 18.5824C16.9577 17.1229 17.3638 15.7004 17.3884 15.6262C17.3638 15.6014 14.6321 14.5501 14.6075 11.3836C14.5829 8.73656 16.7608 7.4749 16.8593 7.40068C15.6288 5.57005 13.7093 5.37214 13.0448 5.32266ZM22.9255 1.7356V21.0191H25.9032V14.4264H30.0253C33.7905 14.4264 36.436 11.8288 36.436 8.06862C36.436 4.30839 33.8398 1.7356 30.1237 1.7356H22.9255ZM25.9032 4.25891H29.3362C31.9202 4.25891 33.3968 5.64426 33.3968 8.08099C33.3968 10.5177 31.9202 11.9154 29.3239 11.9154H25.9032V4.25891ZM41.8747 21.1676C43.745 21.1676 45.48 20.2151 46.2675 18.7061H46.329V21.0191H49.0853V11.4207C49.0853 8.6376 46.8704 6.84407 43.462 6.84407C40.2997 6.84407 37.9618 8.66234 37.8757 11.1609H40.5581C40.7796 9.97347 41.8747 9.19421 43.3759 9.19421C45.197 9.19421 46.2183 10.0477 46.2183 11.6186V12.6823L42.5023 12.905C39.0446 13.1152 37.1743 14.5377 37.1743 17.0115C37.1743 19.5101 39.1062 21.1676 41.8747 21.1676ZM42.6745 18.8793C41.0872 18.8793 40.0782 18.1124 40.0782 16.9373C40.0782 15.7251 41.0503 15.0201 42.9083 14.9088L46.2183 14.6985V15.787C46.2183 17.5929 44.6925 18.8793 42.6745 18.8793ZM52.7644 26.2637C55.6683 26.2637 57.0341 25.1504 58.2276 21.7737L63.4571 7.02961H60.4302L56.9233 18.4216H56.8618L53.355 7.02961H50.2419L55.2868 21.0686L55.0161 21.9221C54.5608 23.3693 53.8226 23.9259 52.506 23.9259C52.2722 23.9259 51.8169 23.9012 51.6323 23.8764V26.1895C51.8046 26.2389 52.5429 26.2637 52.7644 26.2637Z" fill="white"/>
</g>
<defs>
<clipPath id="clip0_493_5613">
<rect width="63" height="26" fill="white" transform="translate(0.457153 0.263672)"/>
</clipPath>
</defs>
</svg>