<svg width="84" height="28" viewBox="0 0 84 28" fill="none" xmlns="http://www.w3.org/2000/svg">
<rect x="0.5" y="1" width="83" height="26" rx="13" stroke="#5DF7A4"/>
<path d="M19.9463 10.25L18.3863 10.7C18.2813 10.145 17.7863 9.725 17.2013 9.725H16.4813C15.8063 9.725 15.2663 10.28 15.2663 10.94V15.8C15.2663 16.475 15.8063 17.015 16.4813 17.015H17.2013C17.7863 17.015 18.2813 16.58 18.3863 16.04L19.9463 16.49C19.7812 17.105 19.4513 17.63 18.9413 18.035C18.4313 18.44 17.8463 18.635 17.2013 18.635H16.4813C15.6863 18.635 15.0263 18.365 14.4713 17.81C13.9163 17.255 13.6463 16.58 13.6463 15.8V10.94C13.6463 10.16 13.9163 9.5 14.4713 8.945C15.0263 8.39 15.6863 8.105 16.4813 8.105H17.2013C17.8463 8.105 18.4313 8.315 18.9413 8.72C19.4513 9.125 19.7812 9.635 19.9463 10.25ZM26.4825 18.635C25.7025 18.635 25.0275 18.365 24.4725 17.81C23.9175 17.255 23.6475 16.58 23.6475 15.8V10.94C23.6475 10.16 23.9175 9.5 24.4725 8.945C25.0275 8.39 25.7025 8.105 26.4825 8.105H27.2025C27.9825 8.105 28.6425 8.39 29.1975 8.945C29.7525 9.5 30.0375 10.16 30.0375 10.94V15.8C30.0375 16.58 29.7525 17.255 29.1975 17.81C28.6425 18.365 27.9825 18.635 27.2025 18.635H26.4825ZM26.4825 17.015H27.2025C27.8775 17.015 28.4175 16.475 28.4175 15.8V10.94C28.4175 10.265 27.8775 9.725 27.2025 9.725H26.4825C25.8075 9.725 25.2675 10.265 25.2675 10.94V15.8C25.2675 16.475 25.8075 17.015 26.4825 17.015ZM33.3937 18.5V8.24H35.4037L36.9487 13.4L38.4937 8.24H40.5038V18.5H38.8838V11.09L37.6537 15.26H36.2587L35.0137 11.09V18.5H33.3937ZM43.5 18.5V8.24H45.51L47.055 13.4L48.6 8.24H50.61V18.5H48.99V11.09L47.76 15.26H46.365L45.12 11.09V18.5H43.5ZM56.8012 18.635C56.0212 18.635 55.3462 18.365 54.7912 17.81C54.2362 17.255 53.9662 16.58 53.9662 15.8V10.94C53.9662 10.16 54.2362 9.5 54.7912 8.945C55.3462 8.39 56.0212 8.105 56.8012 8.105H57.5212C58.3012 8.105 58.9612 8.39 59.5162 8.945C60.0712 9.5 60.3562 10.16 60.3562 10.94V15.8C60.3562 16.58 60.0712 17.255 59.5162 17.81C58.9612 18.365 58.3012 18.635 57.5212 18.635H56.8012ZM56.8012 17.015H57.5212C58.1962 17.015 58.7362 16.475 58.7362 15.8V10.94C58.7362 10.265 58.1962 9.725 57.5212 9.725H56.8012C56.1262 9.725 55.5862 10.265 55.5862 10.94V15.8C55.5862 16.475 56.1262 17.015 56.8012 17.015ZM63.8925 8.24H65.9175L69.0225 15.56V8.24H70.6425V18.5H68.6175L65.5125 11.18V18.5H63.8925V8.24Z" fill="#5FFFF9"/>
</svg>
