<svg width="114" height="28" viewBox="0 0 114 28" fill="none" xmlns="http://www.w3.org/2000/svg">
<rect x="0.5" y="1" width="113" height="26" rx="13" stroke="url(#paint0_linear_493_5579)"/>
<path d="M13.8319 8.24H15.4519V16.88H19.9069V18.5H13.8319V8.24ZM23.8031 18.5V8.24H30.0131V9.86H25.4231V12.56H29.5631V14.18H25.4231V16.88H30.0131V18.5H23.8031ZM39.9694 10.25L38.4244 10.7C38.3044 10.145 37.8094 9.725 37.2244 9.725H36.4744C35.7994 9.725 35.2594 10.265 35.2594 10.94V15.8C35.2594 16.475 35.7994 17.015 36.4744 17.015H37.1944C37.8694 17.015 38.4094 16.475 38.4094 15.8V14.18H36.6544V12.56H40.0294V15.8C40.0294 16.58 39.7444 17.255 39.1894 17.81C38.6344 18.365 37.9744 18.635 37.1944 18.635H36.4744C35.6944 18.635 35.0194 18.365 34.4644 17.81C33.9094 17.255 33.6394 16.58 33.6394 15.8V10.925C33.6544 10.145 33.9244 9.485 34.4794 8.93C35.0344 8.375 35.6944 8.105 36.4744 8.105H37.2244C37.8844 8.105 38.4694 8.315 38.9794 8.72C39.4894 9.125 39.8194 9.635 39.9694 10.25ZM44.0156 18.5V8.24H50.2256V9.86H45.6356V12.56H49.7756V14.18H45.6356V16.88H50.2256V18.5H44.0156ZM53.6269 8.24H55.6519L58.7569 15.56V8.24H60.3769V18.5H58.3519L55.2469 11.18V18.5H53.6269V8.24ZM64.0931 18.5V8.24H67.4681C68.2481 8.24 68.9081 8.525 69.4631 9.08C70.0181 9.635 70.3031 10.295 70.3031 11.075V15.665C70.3031 16.445 70.0181 17.12 69.4631 17.675C68.9081 18.23 68.2481 18.5 67.4681 18.5H64.0931ZM65.7131 16.88H67.4681C68.1431 16.88 68.6831 16.34 68.6831 15.665V11.075C68.6831 10.4 68.1431 9.86 67.4681 9.86H65.7131V16.88ZM80.3494 14.225L80.3794 14.36C80.4544 14.735 80.6644 15.635 80.6644 16.565V18.5H79.0444V16.43V16.28H75.3994V16.43V18.5H73.7794V16.565C73.7794 15.62 73.9744 14.735 74.0494 14.36L74.0794 14.225L75.4144 9.455C75.6394 8.675 76.3744 8.105 77.2144 8.105C78.0544 8.105 78.7894 8.66 79.0294 9.455L80.3494 14.225ZM75.6544 14.66H78.7744C78.7744 14.645 78.7594 14.6 78.7594 14.585L77.4844 9.92C77.4394 9.785 77.3494 9.725 77.2144 9.725C77.0644 9.725 76.9744 9.785 76.9444 9.92L75.6694 14.585C75.6694 14.6 75.6544 14.645 75.6544 14.66ZM89.7506 15.26C90.3806 15.935 90.6956 16.7 90.6956 17.555V18.5H89.0756V17.555C89.0756 17.12 88.9106 16.73 88.5656 16.37L86.9156 14.63H85.9706V18.5H84.3506V8.24H87.7256C88.5206 8.24 89.1806 8.525 89.7356 9.08C90.2906 9.635 90.5606 10.295 90.5606 11.075V11.795C90.5606 12.92 89.8856 13.91 88.9106 14.375L89.7506 15.26ZM85.9706 9.86V13.01H87.7256C88.4006 13.01 88.9406 12.47 88.9406 11.795V11.075C88.9406 10.4 88.4006 9.86 87.7256 9.86H85.9706ZM100.802 10.355C100.802 10.97 100.517 11.705 100.337 11.99C100.262 12.125 100.187 12.215 100.127 12.29L98.2369 14.72V18.5H96.6169V14.72L94.7269 12.29C94.6069 12.155 94.4419 11.945 94.2169 11.3C94.1119 10.985 94.0519 10.67 94.0519 10.355V8.24H95.6719V10.355C95.6719 10.85 95.9869 11.285 96.0019 11.3L97.4269 13.13L98.8519 11.3C98.8669 11.285 99.1819 10.85 99.1819 10.355V8.24H100.802V10.355Z" fill="url(#paint1_linear_493_5579)"/>
<path d="M13.8319 8.24H15.4519V16.88H19.9069V18.5H13.8319V8.24ZM23.8031 18.5V8.24H30.0131V9.86H25.4231V12.56H29.5631V14.18H25.4231V16.88H30.0131V18.5H23.8031ZM39.9694 10.25L38.4244 10.7C38.3044 10.145 37.8094 9.725 37.2244 9.725H36.4744C35.7994 9.725 35.2594 10.265 35.2594 10.94V15.8C35.2594 16.475 35.7994 17.015 36.4744 17.015H37.1944C37.8694 17.015 38.4094 16.475 38.4094 15.8V14.18H36.6544V12.56H40.0294V15.8C40.0294 16.58 39.7444 17.255 39.1894 17.81C38.6344 18.365 37.9744 18.635 37.1944 18.635H36.4744C35.6944 18.635 35.0194 18.365 34.4644 17.81C33.9094 17.255 33.6394 16.58 33.6394 15.8V10.925C33.6544 10.145 33.9244 9.485 34.4794 8.93C35.0344 8.375 35.6944 8.105 36.4744 8.105H37.2244C37.8844 8.105 38.4694 8.315 38.9794 8.72C39.4894 9.125 39.8194 9.635 39.9694 10.25ZM44.0156 18.5V8.24H50.2256V9.86H45.6356V12.56H49.7756V14.18H45.6356V16.88H50.2256V18.5H44.0156ZM53.6269 8.24H55.6519L58.7569 15.56V8.24H60.3769V18.5H58.3519L55.2469 11.18V18.5H53.6269V8.24ZM64.0931 18.5V8.24H67.4681C68.2481 8.24 68.9081 8.525 69.4631 9.08C70.0181 9.635 70.3031 10.295 70.3031 11.075V15.665C70.3031 16.445 70.0181 17.12 69.4631 17.675C68.9081 18.23 68.2481 18.5 67.4681 18.5H64.0931ZM65.7131 16.88H67.4681C68.1431 16.88 68.6831 16.34 68.6831 15.665V11.075C68.6831 10.4 68.1431 9.86 67.4681 9.86H65.7131V16.88ZM80.3494 14.225L80.3794 14.36C80.4544 14.735 80.6644 15.635 80.6644 16.565V18.5H79.0444V16.43V16.28H75.3994V16.43V18.5H73.7794V16.565C73.7794 15.62 73.9744 14.735 74.0494 14.36L74.0794 14.225L75.4144 9.455C75.6394 8.675 76.3744 8.105 77.2144 8.105C78.0544 8.105 78.7894 8.66 79.0294 9.455L80.3494 14.225ZM75.6544 14.66H78.7744C78.7744 14.645 78.7594 14.6 78.7594 14.585L77.4844 9.92C77.4394 9.785 77.3494 9.725 77.2144 9.725C77.0644 9.725 76.9744 9.785 76.9444 9.92L75.6694 14.585C75.6694 14.6 75.6544 14.645 75.6544 14.66ZM89.7506 15.26C90.3806 15.935 90.6956 16.7 90.6956 17.555V18.5H89.0756V17.555C89.0756 17.12 88.9106 16.73 88.5656 16.37L86.9156 14.63H85.9706V18.5H84.3506V8.24H87.7256C88.5206 8.24 89.1806 8.525 89.7356 9.08C90.2906 9.635 90.5606 10.295 90.5606 11.075V11.795C90.5606 12.92 89.8856 13.91 88.9106 14.375L89.7506 15.26ZM85.9706 9.86V13.01H87.7256C88.4006 13.01 88.9406 12.47 88.9406 11.795V11.075C88.9406 10.4 88.4006 9.86 87.7256 9.86H85.9706ZM100.802 10.355C100.802 10.97 100.517 11.705 100.337 11.99C100.262 12.125 100.187 12.215 100.127 12.29L98.2369 14.72V18.5H96.6169V14.72L94.7269 12.29C94.6069 12.155 94.4419 11.945 94.2169 11.3C94.1119 10.985 94.0519 10.67 94.0519 10.355V8.24H95.6719V10.355C95.6719 10.85 95.9869 11.285 96.0019 11.3L97.4269 13.13L98.8519 11.3C98.8669 11.285 99.1819 10.85 99.1819 10.355V8.24H100.802V10.355Z" fill="white" fill-opacity="0.67"/>
<defs>
<linearGradient id="paint0_linear_493_5579" x1="15.2" y1="5.225" x2="23.6388" y2="41.2773" gradientUnits="userSpaceOnUse">
<stop stop-color="#8C421D"/>
<stop offset="0.325272" stop-color="#FBE67B"/>
<stop offset="0.535488" stop-color="#FCFBE7"/>
<stop offset="0.769917" stop-color="#F7D14E"/>
<stop offset="1" stop-color="#D4A041"/>
</linearGradient>
<linearGradient id="paint1_linear_493_5579" x1="24" y1="5.225" x2="34.3638" y2="40.1799" gradientUnits="userSpaceOnUse">
<stop stop-color="#8C421D"/>
<stop offset="0.325272" stop-color="#FBE67B"/>
<stop offset="0.535488" stop-color="#FCFBE7"/>
<stop offset="0.769917" stop-color="#F7D14E"/>
<stop offset="1" stop-color="#D4A041"/>
</linearGradient>
</defs>
</svg>
