<svg width="64" height="27" viewBox="0 0 64 27" fill="none" xmlns="http://www.w3.org/2000/svg">
<rect x="0.5" y="0.5" width="63" height="26" rx="13" stroke="url(#paint0_linear_493_5562)"/>
<path d="M13.9625 18V7.74H20.1725V9.36H15.5825V12.06H19.7225V13.68H15.5825V16.38H20.1725V18H13.9625ZM24.2038 18V7.74H27.5788C28.3588 7.74 29.0188 8.01 29.5738 8.565C30.1288 9.12 30.4138 9.78 30.4138 10.575V11.505C30.4138 12.3 30.1288 12.96 29.5738 13.515C29.0188 14.07 28.3588 14.34 27.5788 14.34H25.8238V18H24.2038ZM25.8238 12.72H27.5788C28.2538 12.72 28.7938 12.18 28.7938 11.505V10.575C28.7938 9.9 28.2538 9.36 27.5788 9.36H25.8238V12.72ZM33.95 16.38H36.245V9.36H34.085V7.74H40.025V9.36H37.865V16.38H40.16V18H33.95V16.38ZM50.3713 9.75L48.8113 10.2C48.7063 9.645 48.2113 9.225 47.6263 9.225H46.9063C46.2313 9.225 45.6913 9.78 45.6913 10.44V15.3C45.6913 15.975 46.2313 16.515 46.9063 16.515H47.6263C48.2113 16.515 48.7063 16.08 48.8113 15.54L50.3713 15.99C50.2063 16.605 49.8763 17.13 49.3663 17.535C48.8563 17.94 48.2713 18.135 47.6263 18.135H46.9063C46.1113 18.135 45.4513 17.865 44.8963 17.31C44.3413 16.755 44.0713 16.08 44.0713 15.3V10.44C44.0713 9.66 44.3413 9 44.8963 8.445C45.4513 7.89 46.1113 7.605 46.9063 7.605H47.6263C48.2713 7.605 48.8563 7.815 49.3663 8.22C49.8763 8.625 50.2063 9.135 50.3713 9.75Z" fill="#D0FDFF"/>
<defs>
<linearGradient id="paint0_linear_493_5562" x1="57.7215" y1="5.63539" x2="2.02531" y2="5.63539" gradientUnits="userSpaceOnUse">
<stop stop-color="#D891EE"/>
<stop offset="0.163462" stop-color="#F4B9F5"/>
<stop offset="0.375" stop-color="#A8CFF5"/>
<stop offset="0.600962" stop-color="#BDFEFB"/>
<stop offset="0.75" stop-color="#C1FEC6"/>
<stop offset="0.923077" stop-color="#EDEFC8"/>
</linearGradient>
</defs>
</svg>
