<svg width="64" height="28" viewBox="0 0 64 28" fill="none" xmlns="http://www.w3.org/2000/svg">
<rect x="0.5" y="1" width="63" height="26" rx="13" stroke="url(#paint0_linear_493_5562)"/>
<path d="M13.9625 18.5V8.24H20.1725V9.86H15.5825V12.56H19.7225V14.18H15.5825V16.88H20.1725V18.5H13.9625ZM24.2038 18.5V8.24H27.5788C28.3588 8.24 29.0188 8.51 29.5738 9.065C30.1288 9.62 30.4138 10.28 30.4138 11.075V12.005C30.4138 12.8 30.1288 13.46 29.5738 14.015C29.0188 14.57 28.3588 14.84 27.5788 14.84H25.8238V18.5H24.2038ZM25.8238 13.22H27.5788C28.2538 13.22 28.7938 12.68 28.7938 12.005V11.075C28.7938 10.4 28.2538 9.86 27.5788 9.86H25.8238V13.22ZM33.95 16.88H36.245V9.86H34.085V8.24H40.025V9.86H37.865V16.88H40.16V18.5H33.95V16.88ZM50.3713 10.25L48.8113 10.7C48.7063 10.145 48.2113 9.725 47.6263 9.725H46.9063C46.2313 9.725 45.6913 10.28 45.6913 10.94V15.8C45.6913 16.475 46.2313 17.015 46.9063 17.015H47.6263C48.2113 17.015 48.7063 16.58 48.8113 16.04L50.3713 16.49C50.2063 17.105 49.8763 17.63 49.3663 18.035C48.8563 18.44 48.2713 18.635 47.6263 18.635H46.9063C46.1113 18.635 45.4513 18.365 44.8963 17.81C44.3413 17.255 44.0713 16.58 44.0713 15.8V10.94C44.0713 10.16 44.3413 9.5 44.8963 8.945C45.4513 8.39 46.1113 8.105 46.9063 8.105H47.6263C48.2713 8.105 48.8563 8.315 49.3663 8.72C49.8763 9.125 50.2063 9.635 50.3713 10.25Z" fill="#D0FDFF"/>
<defs>
<linearGradient id="paint0_linear_493_5562" x1="57.7215" y1="6.13539" x2="2.02531" y2="6.13539" gradientUnits="userSpaceOnUse">
<stop stop-color="#D891EE"/>
<stop offset="0.163462" stop-color="#F4B9F5"/>
<stop offset="0.375" stop-color="#A8CFF5"/>
<stop offset="0.600962" stop-color="#BDFEFB"/>
<stop offset="0.75" stop-color="#C1FEC6"/>
<stop offset="0.923077" stop-color="#EDEFC8"/>
</linearGradient>
</defs>
</svg>