<svg width="114" height="27" viewBox="0 0 114 27" fill="none" xmlns="http://www.w3.org/2000/svg">
<rect x="0.5" y="0.5" width="113" height="26" rx="13" stroke="url(#paint0_linear_493_5579)"/>
<path d="M13.8319 7.74H15.4519V16.38H19.9069V18H13.8319V7.74ZM23.8031 18V7.74H30.0131V9.36H25.4231V12.06H29.5631V13.68H25.4231V16.38H30.0131V18H23.8031ZM39.9694 9.75L38.4244 10.2C38.3044 9.645 37.8094 9.225 37.2244 9.225H36.4744C35.7994 9.225 35.2594 9.765 35.2594 10.44V15.3C35.2594 15.975 35.7994 16.515 36.4744 16.515H37.1944C37.8694 16.515 38.4094 15.975 38.4094 15.3V13.68H36.6544V12.06H40.0294V15.3C40.0294 16.08 39.7444 16.755 39.1894 17.31C38.6344 17.865 37.9744 18.135 37.1944 18.135H36.4744C35.6944 18.135 35.0194 17.865 34.4644 17.31C33.9094 16.755 33.6394 16.08 33.6394 15.3V10.425C33.6544 9.645 33.9244 8.985 34.4794 8.43C35.0344 7.875 35.6944 7.605 36.4744 7.605H37.2244C37.8844 7.605 38.4694 7.815 38.9794 8.22C39.4894 8.625 39.8194 9.135 39.9694 9.75ZM44.0156 18V7.74H50.2256V9.36H45.6356V12.06H49.7756V13.68H45.6356V16.38H50.2256V18H44.0156ZM53.6269 7.74H55.6519L58.7569 15.06V7.74H60.3769V18H58.3519L55.2469 10.68V18H53.6269V7.74ZM64.0931 18V7.74H67.4681C68.2481 7.74 68.9081 8.025 69.4631 8.58C70.0181 9.135 70.3031 9.795 70.3031 10.575V15.165C70.3031 15.945 70.0181 16.62 69.4631 17.175C68.9081 17.73 68.2481 18 67.4681 18H64.0931ZM65.7131 16.38H67.4681C68.1431 16.38 68.6831 15.84 68.6831 15.165V10.575C68.6831 9.9 68.1431 9.36 67.4681 9.36H65.7131V16.38ZM80.3494 13.725L80.3794 13.86C80.4544 14.235 80.6644 15.135 80.6644 16.065V18H79.0444V15.93V15.78H75.3994V15.93V18H73.7794V16.065C73.7794 15.12 73.9744 14.235 74.0494 13.86L74.0794 13.725L75.4144 8.955C75.6394 8.175 76.3744 7.605 77.2144 7.605C78.0544 7.605 78.7894 8.16 79.0294 8.955L80.3494 13.725ZM75.6544 14.16H78.7744C78.7744 14.145 78.7594 14.1 78.7594 14.085L77.4844 9.42C77.4394 9.285 77.3494 9.225 77.2144 9.225C77.0644 9.225 76.9744 9.285 76.9444 9.42L75.6694 14.085C75.6694 14.1 75.6544 14.145 75.6544 14.16ZM89.7506 14.76C90.3806 15.435 90.6956 16.2 90.6956 17.055V18H89.0756V17.055C89.0756 16.62 88.9106 16.23 88.5656 15.87L86.9156 14.13H85.9706V18H84.3506V7.74H87.7256C88.5206 7.74 89.1806 8.025 89.7356 8.58C90.2906 9.135 90.5606 9.795 90.5606 10.575V11.295C90.5606 12.42 89.8856 13.41 88.9106 13.875L89.7506 14.76ZM85.9706 9.36V12.51H87.7256C88.4006 12.51 88.9406 11.97 88.9406 11.295V10.575C88.9406 9.9 88.4006 9.36 87.7256 9.36H85.9706ZM100.802 9.855C100.802 10.47 100.517 11.205 100.337 11.49C100.262 11.625 100.187 11.715 100.127 11.79L98.2369 14.22V18H96.6169V14.22L94.7269 11.79C94.6069 11.655 94.4419 11.445 94.2169 10.8C94.1119 10.485 94.0519 10.17 94.0519 9.855V7.74H95.6719V9.855C95.6719 10.35 95.9869 10.785 96.0019 10.8L97.4269 12.63L98.8519 10.8C98.8669 10.785 99.1819 10.35 99.1819 9.855V7.74H100.802V9.855Z" fill="url(#paint1_linear_493_5579)"/>
<path d="M13.8319 7.74H15.4519V16.38H19.9069V18H13.8319V7.74ZM23.8031 18V7.74H30.0131V9.36H25.4231V12.06H29.5631V13.68H25.4231V16.38H30.0131V18H23.8031ZM39.9694 9.75L38.4244 10.2C38.3044 9.645 37.8094 9.225 37.2244 9.225H36.4744C35.7994 9.225 35.2594 9.765 35.2594 10.44V15.3C35.2594 15.975 35.7994 16.515 36.4744 16.515H37.1944C37.8694 16.515 38.4094 15.975 38.4094 15.3V13.68H36.6544V12.06H40.0294V15.3C40.0294 16.08 39.7444 16.755 39.1894 17.31C38.6344 17.865 37.9744 18.135 37.1944 18.135H36.4744C35.6944 18.135 35.0194 17.865 34.4644 17.31C33.9094 16.755 33.6394 16.08 33.6394 15.3V10.425C33.6544 9.645 33.9244 8.985 34.4794 8.43C35.0344 7.875 35.6944 7.605 36.4744 7.605H37.2244C37.8844 7.605 38.4694 7.815 38.9794 8.22C39.4894 8.625 39.8194 9.135 39.9694 9.75ZM44.0156 18V7.74H50.2256V9.36H45.6356V12.06H49.7756V13.68H45.6356V16.38H50.2256V18H44.0156ZM53.6269 7.74H55.6519L58.7569 15.06V7.74H60.3769V18H58.3519L55.2469 10.68V18H53.6269V7.74ZM64.0931 18V7.74H67.4681C68.2481 7.74 68.9081 8.025 69.4631 8.58C70.0181 9.135 70.3031 9.795 70.3031 10.575V15.165C70.3031 15.945 70.0181 16.62 69.4631 17.175C68.9081 17.73 68.2481 18 67.4681 18H64.0931ZM65.7131 16.38H67.4681C68.1431 16.38 68.6831 15.84 68.6831 15.165V10.575C68.6831 9.9 68.1431 9.36 67.4681 9.36H65.7131V16.38ZM80.3494 13.725L80.3794 13.86C80.4544 14.235 80.6644 15.135 80.6644 16.065V18H79.0444V15.93V15.78H75.3994V15.93V18H73.7794V16.065C73.7794 15.12 73.9744 14.235 74.0494 13.86L74.0794 13.725L75.4144 8.955C75.6394 8.175 76.3744 7.605 77.2144 7.605C78.0544 7.605 78.7894 8.16 79.0294 8.955L80.3494 13.725ZM75.6544 14.16H78.7744C78.7744 14.145 78.7594 14.1 78.7594 14.085L77.4844 9.42C77.4394 9.285 77.3494 9.225 77.2144 9.225C77.0644 9.225 76.9744 9.285 76.9444 9.42L75.6694 14.085C75.6694 14.1 75.6544 14.145 75.6544 14.16ZM89.7506 14.76C90.3806 15.435 90.6956 16.2 90.6956 17.055V18H89.0756V17.055C89.0756 16.62 88.9106 16.23 88.5656 15.87L86.9156 14.13H85.9706V18H84.3506V7.74H87.7256C88.5206 7.74 89.1806 8.025 89.7356 8.58C90.2906 9.135 90.5606 9.795 90.5606 10.575V11.295C90.5606 12.42 89.8856 13.41 88.9106 13.875L89.7506 14.76ZM85.9706 9.36V12.51H87.7256C88.4006 12.51 88.9406 11.97 88.9406 11.295V10.575C88.9406 9.9 88.4006 9.36 87.7256 9.36H85.9706ZM100.802 9.855C100.802 10.47 100.517 11.205 100.337 11.49C100.262 11.625 100.187 11.715 100.127 11.79L98.2369 14.22V18H96.6169V14.22L94.7269 11.79C94.6069 11.655 94.4419 11.445 94.2169 10.8C94.1119 10.485 94.0519 10.17 94.0519 9.855V7.74H95.6719V9.855C95.6719 10.35 95.9869 10.785 96.0019 10.8L97.4269 12.63L98.8519 10.8C98.8669 10.785 99.1819 10.35 99.1819 9.855V7.74H100.802V9.855Z" fill="white" fill-opacity="0.67"/>
<defs>
<linearGradient id="paint0_linear_493_5579" x1="15.2" y1="4.725" x2="23.6388" y2="40.7773" gradientUnits="userSpaceOnUse">
<stop stop-color="#8C421D"/>
<stop offset="0.325272" stop-color="#FBE67B"/>
<stop offset="0.535488" stop-color="#FCFBE7"/>
<stop offset="0.769917" stop-color="#F7D14E"/>
<stop offset="1" stop-color="#D4A041"/>
</linearGradient>
<linearGradient id="paint1_linear_493_5579" x1="24" y1="4.725" x2="34.3638" y2="39.6799" gradientUnits="userSpaceOnUse">
<stop stop-color="#8C421D"/>
<stop offset="0.325272" stop-color="#FBE67B"/>
<stop offset="0.535488" stop-color="#FCFBE7"/>
<stop offset="0.769917" stop-color="#F7D14E"/>
<stop offset="1" stop-color="#D4A041"/>
</linearGradient>
</defs>
</svg>
