<svg width="64" height="28" viewBox="0 0 64 28" fill="none" xmlns="http://www.w3.org/2000/svg">
<rect x="0.5" y="1" width="63" height="26" rx="13" stroke="#EA7DDD"/>
<path d="M19.2725 15.26C19.9025 15.935 20.2175 16.7 20.2175 17.555V18.5H18.5975V17.555C18.5975 17.12 18.4325 16.73 18.0875 16.37L16.4375 14.63H15.4925V18.5H13.8725V8.24H17.2475C18.0425 8.24 18.7025 8.525 19.2575 9.08C19.8125 9.635 20.0825 10.295 20.0825 11.075V11.795C20.0825 12.92 19.4075 13.91 18.4325 14.375L19.2725 15.26ZM15.4925 9.86V13.01H17.2475C17.9225 13.01 18.4625 12.47 18.4625 11.795V11.075C18.4625 10.4 17.9225 9.86 17.2475 9.86H15.4925ZM30.0838 14.225L30.1138 14.36C30.1888 14.735 30.3988 15.635 30.3988 16.565V18.5H28.7788V16.43V16.28H25.1338V16.43V18.5H23.5138V16.565C23.5138 15.62 23.7088 14.735 23.7838 14.36L23.8138 14.225L25.1488 9.455C25.3738 8.675 26.1088 8.105 26.9488 8.105C27.7888 8.105 28.5238 8.66 28.7638 9.455L30.0838 14.225ZM25.3888 14.66H28.5088C28.5088 14.645 28.4938 14.6 28.4938 14.585L27.2188 9.92C27.1738 9.785 27.0838 9.725 26.9488 9.725C26.7988 9.725 26.7088 9.785 26.6788 9.92L25.4038 14.585C25.4038 14.6 25.3888 14.645 25.3888 14.66ZM39.485 15.26C40.115 15.935 40.43 16.7 40.43 17.555V18.5H38.81V17.555C38.81 17.12 38.645 16.73 38.3 16.37L36.65 14.63H35.705V18.5H34.085V8.24H37.46C38.255 8.24 38.915 8.525 39.47 9.08C40.025 9.635 40.295 10.295 40.295 11.075V11.795C40.295 12.92 39.62 13.91 38.645 14.375L39.485 15.26ZM35.705 9.86V13.01H37.46C38.135 13.01 38.675 12.47 38.675 11.795V11.075C38.675 10.4 38.135 9.86 37.46 9.86H35.705ZM44.2813 18.5V8.24H50.4913V9.86H45.9013V12.56H50.0413V14.18H45.9013V16.88H50.4913V18.5H44.2813Z" fill="#FFD2ED"/>
</svg>