<svg width="59" height="13" viewBox="0 0 59 13" fill="none" xmlns="http://www.w3.org/2000/svg">
<g clip-path="url(#clip0_493_5621)">
<path d="M32.5465 4.16419C33.9234 4.16419 35.0079 4.29744 35.0079 4.29744L34.6069 2.21971C34.1751 2.19997 33.3855 2.17529 32.1418 2.17529C29.4274 2.17529 27.5052 3.7706 27.5052 6.51582C27.5052 8.86746 28.6205 10.902 31.7803 10.902C33.7531 10.902 35.0092 10.7725 35.0104 10.7725L35.0092 5.64476C34.3824 5.64969 32.1899 5.66203 31.7198 5.6645C31.6014 6.13088 31.4829 6.61576 31.3645 7.08091C31.3645 7.08091 32.3207 7.08461 32.7562 7.08461C32.7562 7.64599 32.7575 8.23822 32.7575 8.7996C32.5317 8.79343 32.1899 8.78109 31.9641 8.78109C30.6094 8.78109 29.9592 7.9421 29.9592 6.33322C29.9592 4.86376 31.0314 4.16419 32.5465 4.16419Z" fill="#181818" fill-opacity="0.4"/>
<path d="M58.5848 12.5L54.5256 6.23843L58.2061 0.5C57.2128 0.644355 55.0278 0.920727 55.0278 0.920727L52.0136 5.78069V1.18476C52.0136 1.18476 50.137 1.36366 49.2856 1.43769V11.5093C50.1172 11.5672 51.182 11.6919 52.0123 11.7597V7.00833L55.0611 12.0262C56.074 12.1225 58.5848 12.5 58.5848 12.5Z" fill="#181818" fill-opacity="0.4"/>
<path d="M38.8206 7.11215C39.4424 7.11215 40.063 7.11338 40.6849 7.11338C40.6849 6.57915 40.6849 6.11153 40.6849 5.57606C40.063 5.5847 39.4424 5.59334 38.8206 5.60074C38.8206 5.08007 38.8206 4.56064 38.8206 4.03997C40.5825 3.97211 41.7792 3.9314 41.7792 3.93017L41.4029 1.95361C41.4029 1.95361 39.2253 2.06218 36.3184 2.14485V10.8025C37.3302 10.8185 40.6651 10.9579 41.7916 11.0122L42.1716 9.02455C40.8996 8.98013 39.9322 8.93448 38.8218 8.90487C38.8206 8.31388 38.8206 7.70561 38.8206 7.11215Z" fill="#181818" fill-opacity="0.4"/>
<path d="M45.2818 7.16881C45.8593 7.17128 46.4379 7.19472 47.0153 7.19843C47.0153 6.62224 47.0153 6.06332 47.0153 5.48714C46.4379 5.49824 45.8593 5.50934 45.2818 5.51921C45.2818 4.93069 45.2818 4.35203 45.2818 3.76474C46.2898 3.71292 47.1856 3.65 48.259 3.58707C48.1307 2.89244 48.0085 2.23482 47.8802 1.54883C46.1825 1.67838 44.4811 1.78448 42.7834 1.89059L42.7858 11.0689C44.3812 11.1417 46.6736 11.3156 48.2639 11.4378L48.66 9.402C47.5224 9.33414 46.1418 9.2157 45.2843 9.17622C45.2818 8.53834 45.2818 7.80546 45.2818 7.16881Z" fill="#181818" fill-opacity="0.4"/>
<path d="M15.8742 1.95715L13.2721 9.11816L10.1604 9.29829C10.1604 8.66659 10.1666 7.71532 10.1666 7.08361C10.7465 7.07621 11.3189 7.06264 11.9001 7.05647C11.9001 6.49632 11.9001 5.96332 11.9001 5.40193C11.3226 5.39206 10.744 5.38219 10.1666 5.37109C10.1666 4.71717 10.1666 4.19034 10.1666 3.53518C12.2875 3.65857 13.7804 3.73383 13.7804 3.73259C13.6521 3.08238 13.3658 1.69558 13.3658 1.69558C11.388 1.57467 10.058 1.48213 7.66809 1.27979V3.42044H7.66932C7.66932 6.05832 7.66809 8.91458 7.66809 11.5524C10.269 11.3316 12.3603 11.1749 15.0265 11.033L15.6027 9.35999C16.5182 9.32791 17.409 9.28596 18.3146 9.26005L18.8155 10.8689L21.3152 10.7899L18.2036 2.05462C17.8223 2.03981 16.2751 1.97689 15.8742 1.95715ZM16.1604 7.74617L17.0413 5.19466L17.8297 7.71532C17.2721 7.72272 16.7181 7.73753 16.1604 7.74617Z" fill="#181818" fill-opacity="0.4"/>
<path d="M27.1141 2.24833C24.8279 2.23722 22.67 2.20391 20.3257 2.12988L19.942 4.09287C20.8489 4.11261 21.5608 4.12495 22.4676 4.13852C22.4676 6.32853 22.4664 8.57529 22.4664 10.7653C23.3004 10.7505 24.1357 10.7381 24.9698 10.7283C24.9735 8.56172 24.9772 6.33716 24.9809 4.16936C25.8927 4.178 26.5922 4.18787 27.504 4.19034L27.1141 2.24833Z" fill="#181818" fill-opacity="0.4"/>
<path d="M6.85873 8.93693C6.85873 5.75494 2.49846 5.09732 2.49846 3.80676C2.49846 2.47178 4.90808 2.69387 6.2702 3.66117L6.38002 1.20713C6.09871 1.11706 4.95991 0.738281 3.60025 0.738281C1.67798 0.738281 0 1.79072 0 3.85488C0 7.02453 4.39729 7.56 4.39729 9.18122C4.39729 10.8395 1.48304 9.9869 0 8.54334V11.3404C0 11.3404 1.08945 12.2608 3.25725 12.2608C5.6459 12.2621 6.85873 10.6618 6.85873 8.93693Z" fill="#181818" fill-opacity="0.4"/>
</g>
<defs>
<clipPath id="clip0_493_5621">
<rect width="58.6" height="12" fill="white" transform="translate(0 0.5)"/>
</clipPath>
</defs>
</svg>