<svg width="19" height="19" viewBox="0 0 19 19" fill="none" xmlns="http://www.w3.org/2000/svg">
<path d="M15.4738 14.2137C15.6411 14.381 15.7351 14.6079 15.7351 14.8445C15.7351 15.0811 15.6411 15.3081 15.4738 15.4754C15.3065 15.6427 15.0795 15.7367 14.8429 15.7367C14.6063 15.7367 14.3794 15.6427 14.2121 15.4754L9.49993 10.7618L4.78631 15.4739C4.61899 15.6412 4.39207 15.7352 4.15545 15.7352C3.91883 15.7352 3.6919 15.6412 3.52459 15.4739C3.35728 15.3066 3.26328 15.0797 3.26328 14.843C3.26328 14.6064 3.35728 14.3795 3.52459 14.2122L8.23821 9.50004L3.52607 4.78642C3.35876 4.61911 3.26477 4.39218 3.26477 4.15556C3.26477 3.91894 3.35876 3.69202 3.52607 3.5247C3.69339 3.35739 3.92031 3.26339 4.15693 3.26339C4.39355 3.26339 4.62048 3.35739 4.78779 3.5247L9.49993 8.23832L14.2135 3.52396C14.3809 3.35665 14.6078 3.26265 14.8444 3.26265C15.081 3.26265 15.3079 3.35665 15.4753 3.52396C15.6426 3.69128 15.7366 3.9182 15.7366 4.15482C15.7366 4.39144 15.6426 4.61836 15.4753 4.78568L10.7616 9.50004L15.4738 14.2137Z" fill="black"/>
</svg>
